<svg xmlns="http://www.w3.org/2000/svg" xmlns:xlink="http://www.w3.org/1999/xlink" width="500" zoomAndPan="magnify" viewBox="0 0 375 374.999991" height="500" preserveAspectRatio="xMidYMid meet" version="1.2"><defs><clipPath id="ed92491817"><path d="M 133.96875 46.875 L 241.21875 46.875 L 241.21875 196.875 L 133.96875 196.875 Z M 133.96875 46.875 "/></clipPath></defs><g id="a52955f67c"><g clip-rule="nonzero" clip-path="url(#ed92491817)"><path style=" stroke:none;fill-rule:nonzero;fill:#359730;fill-opacity:1;" d="M 187.5 46.929688 C 166.085938 89.09375 133.96875 111.167969 133.96875 143.289062 C 133.96875 172.847656 157.941406 196.820312 187.5 196.820312 C 217.058594 196.820312 241.03125 172.847656 241.03125 143.289062 C 241.03125 111.167969 208.914062 89.757812 187.5 46.929688 Z M 187.5 46.929688 "/></g><g style="fill:#359730;fill-opacity:1;"><g transform="translate(65.529073, 248.195848)"><path style="stroke:none" d="M 10.546875 0 L 5.46875 0 L 5.46875 -44.734375 L 10.546875 -44.734375 Z M 10.546875 0 "/></g></g><g style="fill:#359730;fill-opacity:1;"><g transform="translate(81.543813, 248.195848)"><path style="stroke:none" d="M 10.546875 0 L 5.46875 0 L 5.46875 -44.734375 L 26.890625 -44.734375 C 31.441406 -44.734375 35.09375 -43.472656 37.84375 -40.953125 C 40.59375 -38.472656 41.96875 -35.070312 41.96875 -30.75 C 41.96875 -25.164062 39.644531 -21.359375 35 -19.328125 C 33.695312 -18.742188 32.414062 -18.316406 31.15625 -18.046875 L 42.90625 0 L 36.890625 0 L 26.078125 -17.171875 L 10.546875 -17.171875 Z M 10.546875 -21.96875 L 26.015625 -21.96875 C 30.796875 -21.96875 34.085938 -23.453125 35.890625 -26.421875 C 36.554688 -27.546875 36.890625 -28.988281 36.890625 -30.75 C 36.890625 -33.582031 35.921875 -35.820312 33.984375 -37.46875 C 32.046875 -39.113281 29.476562 -39.9375 26.28125 -39.9375 L 10.546875 -39.9375 Z M 10.546875 -21.96875 "/></g></g><g style="fill:#359730;fill-opacity:1;"><g transform="translate(126.749987, 248.195848)"><path style="stroke:none" d="M 10.546875 0 L 5.46875 0 L 5.46875 -44.734375 L 26.890625 -44.734375 C 31.441406 -44.734375 35.09375 -43.472656 37.84375 -40.953125 C 40.59375 -38.472656 41.96875 -35.070312 41.96875 -30.75 C 41.96875 -25.164062 39.644531 -21.359375 35 -19.328125 C 33.695312 -18.742188 32.414062 -18.316406 31.15625 -18.046875 L 42.90625 0 L 36.890625 0 L 26.078125 -17.171875 L 10.546875 -17.171875 Z M 10.546875 -21.96875 L 26.015625 -21.96875 C 30.796875 -21.96875 34.085938 -23.453125 35.890625 -26.421875 C 36.554688 -27.546875 36.890625 -28.988281 36.890625 -30.75 C 36.890625 -33.582031 35.921875 -35.820312 33.984375 -37.46875 C 32.046875 -39.113281 29.476562 -39.9375 26.28125 -39.9375 L 10.546875 -39.9375 Z M 10.546875 -21.96875 "/></g></g><g style="fill:#359730;fill-opacity:1;"><g transform="translate(171.956162, 248.195848)"><path style="stroke:none" d="M 10.546875 0 L 5.46875 0 L 5.46875 -44.734375 L 10.546875 -44.734375 Z M 10.546875 0 "/></g></g><g style="fill:#359730;fill-opacity:1;"><g transform="translate(187.970902, 248.195848)"><path style="stroke:none" d="M 10.546875 -39.875 L 10.546875 -24.328125 L 34.796875 -24.328125 L 34.796875 -19.390625 L 10.546875 -19.390625 L 10.546875 0 L 5.46875 0 L 5.46875 -44.734375 L 37.78125 -44.734375 L 37.78125 -39.875 Z M 10.546875 -39.875 "/></g></g><g style="fill:#359730;fill-opacity:1;"><g transform="translate(227.365821, 248.195848)"><path style="stroke:none" d="M 10.546875 -39.875 L 10.546875 -24.875 L 35.40625 -24.875 L 35.40625 -19.9375 L 10.546875 -19.9375 L 10.546875 -4.859375 L 38.390625 -4.859375 L 38.390625 0 L 5.46875 0 L 5.46875 -44.734375 L 38.390625 -44.734375 L 38.390625 -39.875 Z M 10.546875 -39.875 "/></g></g><g style="fill:#359730;fill-opacity:1;"><g transform="translate(267.909405, 248.195848)"><path style="stroke:none" d="M 10.609375 -37.875 C 9.753906 -37.132812 9.179688 -36.3125 8.890625 -35.40625 C 8.597656 -34.507812 8.453125 -33.550781 8.453125 -32.53125 C 8.453125 -31.519531 8.890625 -30.585938 9.765625 -29.734375 C 10.640625 -28.878906 11.796875 -28.15625 13.234375 -27.5625 C 14.679688 -26.976562 16.328125 -26.460938 18.171875 -26.015625 C 20.023438 -25.566406 21.90625 -25.101562 23.8125 -24.625 C 25.726562 -24.15625 27.609375 -23.613281 29.453125 -23 C 31.304688 -22.394531 32.953125 -21.617188 34.390625 -20.671875 C 37.585938 -18.648438 39.1875 -15.878906 39.1875 -12.359375 C 39.1875 -8.171875 37.617188 -4.972656 34.484375 -2.765625 C 31.359375 -0.554688 27.023438 0.546875 21.484375 0.546875 C 15.222656 0.546875 10.445312 -0.757812 7.15625 -3.375 C 4.226562 -5.71875 2.5625 -9.050781 2.15625 -13.375 L 7.4375 -13.375 C 7.613281 -10.3125 9.097656 -7.972656 11.890625 -6.359375 C 14.328125 -4.953125 17.550781 -4.25 21.5625 -4.25 C 29.9375 -4.25 34.125 -6.882812 34.125 -12.15625 C 34.125 -13.957031 33.367188 -15.375 31.859375 -16.40625 C 30.347656 -17.445312 28.457031 -18.304688 26.1875 -18.984375 C 23.914062 -19.660156 21.457031 -20.289062 18.8125 -20.875 C 16.175781 -21.46875 13.722656 -22.222656 11.453125 -23.140625 C 9.179688 -24.066406 7.289062 -25.285156 5.78125 -26.796875 C 4.269531 -28.304688 3.515625 -30.34375 3.515625 -32.90625 C 3.515625 -36.5625 4.910156 -39.535156 7.703125 -41.828125 C 10.492188 -44.128906 14.707031 -45.28125 20.34375 -45.28125 C 26.019531 -45.28125 30.410156 -43.972656 33.515625 -41.359375 C 36.359375 -39.054688 37.867188 -36.101562 38.046875 -32.5 L 32.84375 -32.5 C 32.394531 -36.195312 30.003906 -38.65625 25.671875 -39.875 C 24.140625 -40.320312 22.238281 -40.546875 19.96875 -40.546875 C 17.695312 -40.546875 15.78125 -40.285156 14.21875 -39.765625 C 12.664062 -39.253906 11.460938 -38.625 10.609375 -37.875 Z M 10.609375 -37.875 "/></g></g><g style="fill:#359730;fill-opacity:1;"><g transform="translate(73.546874, 277.756885)"><path style="stroke:none" d="M 18.1875 -19.46875 L 10.5625 -19.46875 L 10.5625 0 L 8.078125 0 L 8.078125 -19.46875 L 0.46875 -19.46875 L 0.46875 -21.84375 L 18.1875 -21.84375 Z M 18.1875 -19.46875 "/></g></g><g style="fill:#359730;fill-opacity:1;"><g transform="translate(92.191839, 277.756885)"><path style="stroke:none" d="M 5.140625 -19.46875 L 5.140625 -12.140625 L 17.296875 -12.140625 L 17.296875 -9.734375 L 5.140625 -9.734375 L 5.140625 -2.375 L 18.75 -2.375 L 18.75 0 L 2.671875 0 L 2.671875 -21.84375 L 18.75 -21.84375 L 18.75 -19.46875 Z M 5.140625 -19.46875 "/></g></g><g style="fill:#359730;fill-opacity:1;"><g transform="translate(112.255803, 277.756885)"><path style="stroke:none" d="M 21.515625 -21.84375 L 21.515625 0 L 18.640625 0 L 5.140625 -18.453125 L 5.140625 0 L 2.671875 0 L 2.671875 -21.84375 L 5.546875 -21.84375 L 19.046875 -3.46875 L 19.046875 -21.84375 Z M 21.515625 -21.84375 "/></g></g><g style="fill:#359730;fill-opacity:1;"><g transform="translate(136.444754, 277.756885)"><path style="stroke:none" d="M 5.171875 -18.5 C 4.753906 -18.132812 4.472656 -17.726562 4.328125 -17.28125 C 4.191406 -16.84375 4.125 -16.375 4.125 -15.875 C 4.125 -15.382812 4.335938 -14.929688 4.765625 -14.515625 C 5.191406 -14.097656 5.757812 -13.742188 6.46875 -13.453125 C 7.175781 -13.171875 7.976562 -12.921875 8.875 -12.703125 C 9.78125 -12.484375 10.695312 -12.257812 11.625 -12.03125 C 12.5625 -11.800781 13.476562 -11.535156 14.375 -11.234375 C 15.28125 -10.941406 16.085938 -10.5625 16.796875 -10.09375 C 18.359375 -9.101562 19.140625 -7.75 19.140625 -6.03125 C 19.140625 -3.988281 18.375 -2.425781 16.84375 -1.34375 C 15.3125 -0.269531 13.195312 0.265625 10.5 0.265625 C 7.4375 0.265625 5.101562 -0.375 3.5 -1.65625 C 2.070312 -2.789062 1.257812 -4.414062 1.0625 -6.53125 L 3.625 -6.53125 C 3.71875 -5.039062 4.445312 -3.898438 5.8125 -3.109375 C 7 -2.421875 8.570312 -2.078125 10.53125 -2.078125 C 14.625 -2.078125 16.671875 -3.363281 16.671875 -5.9375 C 16.671875 -6.820312 16.300781 -7.515625 15.5625 -8.015625 C 14.820312 -8.523438 13.894531 -8.941406 12.78125 -9.265625 C 11.675781 -9.597656 10.476562 -9.90625 9.1875 -10.1875 C 7.90625 -10.476562 6.707031 -10.847656 5.59375 -11.296875 C 4.476562 -11.753906 3.550781 -12.347656 2.8125 -13.078125 C 2.082031 -13.816406 1.71875 -14.816406 1.71875 -16.078125 C 1.71875 -17.859375 2.398438 -19.304688 3.765625 -20.421875 C 5.128906 -21.546875 7.1875 -22.109375 9.9375 -22.109375 C 12.707031 -22.109375 14.851562 -21.472656 16.375 -20.203125 C 17.757812 -19.078125 18.492188 -17.632812 18.578125 -15.875 L 16.03125 -15.875 C 15.8125 -17.675781 14.648438 -18.875 12.546875 -19.46875 C 11.796875 -19.6875 10.863281 -19.796875 9.75 -19.796875 C 8.632812 -19.796875 7.695312 -19.671875 6.9375 -19.421875 C 6.1875 -19.171875 5.597656 -18.863281 5.171875 -18.5 Z M 5.171875 -18.5 "/></g></g><g style="fill:#359730;fill-opacity:1;"><g transform="translate(156.739717, 277.756885)"><path style="stroke:none" d="M 5.140625 0 L 2.671875 0 L 2.671875 -21.84375 L 5.140625 -21.84375 Z M 5.140625 0 "/></g></g><g style="fill:#359730;fill-opacity:1;"><g transform="translate(164.5607, 277.756885)"><path style="stroke:none" d="M 12.375 -22.109375 C 15.632812 -22.109375 18.304688 -21.019531 20.390625 -18.84375 C 22.441406 -16.726562 23.46875 -14.085938 23.46875 -10.921875 C 23.46875 -7.753906 22.441406 -5.113281 20.390625 -3 C 18.304688 -0.820312 15.632812 0.265625 12.375 0.265625 C 9.113281 0.265625 6.441406 -0.820312 4.359375 -3 C 2.304688 -5.113281 1.28125 -7.753906 1.28125 -10.921875 C 1.28125 -14.085938 2.304688 -16.726562 4.359375 -18.84375 C 6.441406 -21.019531 9.113281 -22.109375 12.375 -22.109375 Z M 12.375 -2.140625 C 14.96875 -2.140625 17.066406 -2.988281 18.671875 -4.6875 C 20.210938 -6.3125 20.984375 -8.390625 20.984375 -10.921875 C 20.984375 -13.453125 20.210938 -15.53125 18.671875 -17.15625 C 17.066406 -18.851562 14.96875 -19.703125 12.375 -19.703125 C 9.78125 -19.703125 7.679688 -18.851562 6.078125 -17.15625 C 4.535156 -15.53125 3.765625 -13.453125 3.765625 -10.921875 C 3.765625 -8.390625 4.535156 -6.3125 6.078125 -4.6875 C 7.679688 -2.988281 9.78125 -2.140625 12.375 -2.140625 Z M 12.375 -2.140625 "/></g></g><g style="fill:#359730;fill-opacity:1;"><g transform="translate(189.310653, 277.756885)"><path style="stroke:none" d="M 23.921875 -21.84375 L 23.921875 0 L 21.453125 0 L 21.453125 -18.078125 L 13.359375 -7.6875 L 5.140625 -18.078125 L 5.140625 0 L 2.671875 0 L 2.671875 -21.84375 L 5.546875 -21.84375 L 13.359375 -11.484375 L 21.046875 -21.84375 Z M 23.921875 -21.84375 "/></g></g><g style="fill:#359730;fill-opacity:1;"><g transform="translate(215.908597, 277.756885)"><path style="stroke:none" d="M 5.140625 -19.46875 L 5.140625 -12.140625 L 17.296875 -12.140625 L 17.296875 -9.734375 L 5.140625 -9.734375 L 5.140625 -2.375 L 18.75 -2.375 L 18.75 0 L 2.671875 0 L 2.671875 -21.84375 L 18.75 -21.84375 L 18.75 -19.46875 Z M 5.140625 -19.46875 "/></g></g><g style="fill:#359730;fill-opacity:1;"><g transform="translate(235.972561, 277.756885)"><path style="stroke:none" d="M 18.1875 -19.46875 L 10.5625 -19.46875 L 10.5625 0 L 8.078125 0 L 8.078125 -19.46875 L 0.46875 -19.46875 L 0.46875 -21.84375 L 18.1875 -21.84375 Z M 18.1875 -19.46875 "/></g></g><g style="fill:#359730;fill-opacity:1;"><g transform="translate(254.617526, 277.756885)"><path style="stroke:none" d="M 5.140625 0 L 2.671875 0 L 2.671875 -21.84375 L 13.140625 -21.84375 C 15.359375 -21.84375 17.140625 -21.226562 18.484375 -20 C 19.828125 -18.789062 20.5 -17.128906 20.5 -15.015625 C 20.5 -12.285156 19.363281 -10.425781 17.09375 -9.4375 C 16.457031 -9.15625 15.832031 -8.945312 15.21875 -8.8125 L 20.953125 0 L 18.015625 0 L 12.734375 -8.375 L 5.140625 -8.375 Z M 5.140625 -10.71875 L 12.703125 -10.71875 C 15.035156 -10.71875 16.640625 -11.445312 17.515625 -12.90625 C 17.847656 -13.457031 18.015625 -14.160156 18.015625 -15.015625 C 18.015625 -16.398438 17.539062 -17.492188 16.59375 -18.296875 C 15.65625 -19.097656 14.40625 -19.5 12.84375 -19.5 L 5.140625 -19.5 Z M 5.140625 -10.71875 "/></g></g><g style="fill:#359730;fill-opacity:1;"><g transform="translate(276.694482, 277.756885)"><path style="stroke:none" d="M 12.375 -22.109375 C 15.632812 -22.109375 18.304688 -21.019531 20.390625 -18.84375 C 22.441406 -16.726562 23.46875 -14.085938 23.46875 -10.921875 C 23.46875 -7.753906 22.441406 -5.113281 20.390625 -3 C 18.304688 -0.820312 15.632812 0.265625 12.375 0.265625 C 9.113281 0.265625 6.441406 -0.820312 4.359375 -3 C 2.304688 -5.113281 1.28125 -7.753906 1.28125 -10.921875 C 1.28125 -14.085938 2.304688 -16.726562 4.359375 -18.84375 C 6.441406 -21.019531 9.113281 -22.109375 12.375 -22.109375 Z M 12.375 -2.140625 C 14.96875 -2.140625 17.066406 -2.988281 18.671875 -4.6875 C 20.210938 -6.3125 20.984375 -8.390625 20.984375 -10.921875 C 20.984375 -13.453125 20.210938 -15.53125 18.671875 -17.15625 C 17.066406 -18.851562 14.96875 -19.703125 12.375 -19.703125 C 9.78125 -19.703125 7.679688 -18.851562 6.078125 -17.15625 C 4.535156 -15.53125 3.765625 -13.453125 3.765625 -10.921875 C 3.765625 -8.390625 4.535156 -6.3125 6.078125 -4.6875 C 7.679688 -2.988281 9.78125 -2.140625 12.375 -2.140625 Z M 12.375 -2.140625 "/></g></g></g></svg>