<svg xmlns="http://www.w3.org/2000/svg" xmlns:xlink="http://www.w3.org/1999/xlink" width="500" zoomAndPan="magnify" viewBox="0 0 375 374.999991" height="500" preserveAspectRatio="xMidYMid meet" version="1.2"><defs><clipPath id="538cb2dc1c"><path d="M 80.4375 37.5 L 294.9375 37.5 L 294.9375 337.5 L 80.4375 337.5 Z M 80.4375 37.5 "/></clipPath></defs><g id="d0650dbdd9"><g clip-rule="nonzero" clip-path="url(#538cb2dc1c)"><path style=" stroke:none;fill-rule:nonzero;fill:#359730;fill-opacity:1;" d="M 187.5 37.613281 C 144.675781 121.933594 80.4375 166.085938 80.4375 230.324219 C 80.4375 289.445312 128.378906 337.386719 187.5 337.386719 C 246.621094 337.386719 294.5625 289.445312 294.5625 230.324219 C 294.5625 166.085938 230.324219 123.261719 187.5 37.613281 Z M 187.5 37.613281 "/></g><g style="fill:#ffffff;fill-opacity:1;"><g transform="translate(85.435546, 245.292581)"><path style="stroke:none" d="M 8.828125 0 L 4.578125 0 L 4.578125 -37.4375 L 8.828125 -37.4375 Z M 8.828125 0 "/></g></g><g style="fill:#ffffff;fill-opacity:1;"><g transform="translate(98.836222, 245.292581)"><path style="stroke:none" d="M 8.828125 0 L 4.578125 0 L 4.578125 -37.4375 L 22.5 -37.4375 C 26.3125 -37.4375 29.367188 -36.378906 31.671875 -34.265625 C 33.960938 -32.191406 35.109375 -29.347656 35.109375 -25.734375 C 35.109375 -21.054688 33.171875 -17.867188 29.296875 -16.171875 C 28.203125 -15.679688 27.125 -15.320312 26.0625 -15.09375 L 35.90625 0 L 30.875 0 L 21.828125 -14.359375 L 8.828125 -14.359375 Z M 8.828125 -18.375 L 21.765625 -18.375 C 25.765625 -18.375 28.519531 -19.617188 30.03125 -22.109375 C 30.59375 -23.054688 30.875 -24.265625 30.875 -25.734375 C 30.875 -28.109375 30.0625 -29.984375 28.4375 -31.359375 C 26.820312 -32.734375 24.675781 -33.421875 22 -33.421875 L 8.828125 -33.421875 Z M 8.828125 -18.375 "/></g></g><g style="fill:#ffffff;fill-opacity:1;"><g transform="translate(136.663441, 245.292581)"><path style="stroke:none" d="M 8.828125 0 L 4.578125 0 L 4.578125 -37.4375 L 22.5 -37.4375 C 26.3125 -37.4375 29.367188 -36.378906 31.671875 -34.265625 C 33.960938 -32.191406 35.109375 -29.347656 35.109375 -25.734375 C 35.109375 -21.054688 33.171875 -17.867188 29.296875 -16.171875 C 28.203125 -15.679688 27.125 -15.320312 26.0625 -15.09375 L 35.90625 0 L 30.875 0 L 21.828125 -14.359375 L 8.828125 -14.359375 Z M 8.828125 -18.375 L 21.765625 -18.375 C 25.765625 -18.375 28.519531 -19.617188 30.03125 -22.109375 C 30.59375 -23.054688 30.875 -24.265625 30.875 -25.734375 C 30.875 -28.109375 30.0625 -29.984375 28.4375 -31.359375 C 26.820312 -32.734375 24.675781 -33.421875 22 -33.421875 L 8.828125 -33.421875 Z M 8.828125 -18.375 "/></g></g><g style="fill:#ffffff;fill-opacity:1;"><g transform="translate(174.49066, 245.292581)"><path style="stroke:none" d="M 8.828125 0 L 4.578125 0 L 4.578125 -37.4375 L 8.828125 -37.4375 Z M 8.828125 0 "/></g></g><g style="fill:#ffffff;fill-opacity:1;"><g transform="translate(187.891336, 245.292581)"><path style="stroke:none" d="M 8.828125 -33.359375 L 8.828125 -20.359375 L 29.125 -20.359375 L 29.125 -16.234375 L 8.828125 -16.234375 L 8.828125 0 L 4.578125 0 L 4.578125 -37.4375 L 31.609375 -37.4375 L 31.609375 -33.359375 Z M 8.828125 -33.359375 "/></g></g><g style="fill:#ffffff;fill-opacity:1;"><g transform="translate(220.855868, 245.292581)"><path style="stroke:none" d="M 8.828125 -33.359375 L 8.828125 -20.8125 L 29.625 -20.8125 L 29.625 -16.6875 L 8.828125 -16.6875 L 8.828125 -4.078125 L 32.125 -4.078125 L 32.125 0 L 4.578125 0 L 4.578125 -37.4375 L 32.125 -37.4375 L 32.125 -33.359375 Z M 8.828125 -33.359375 "/></g></g><g style="fill:#ffffff;fill-opacity:1;"><g transform="translate(254.781578, 245.292581)"><path style="stroke:none" d="M 8.875 -31.6875 C 8.15625 -31.070312 7.671875 -30.382812 7.421875 -29.625 C 7.179688 -28.875 7.0625 -28.070312 7.0625 -27.21875 C 7.0625 -26.375 7.429688 -25.59375 8.171875 -24.875 C 8.910156 -24.164062 9.878906 -23.566406 11.078125 -23.078125 C 12.285156 -22.585938 13.660156 -22.148438 15.203125 -21.765625 C 16.753906 -21.390625 18.332031 -21.003906 19.9375 -20.609375 C 21.539062 -20.210938 23.113281 -19.757812 24.65625 -19.25 C 26.195312 -18.738281 27.570312 -18.085938 28.78125 -17.296875 C 31.457031 -15.609375 32.796875 -13.289062 32.796875 -10.34375 C 32.796875 -6.84375 31.484375 -4.164062 28.859375 -2.3125 C 26.242188 -0.46875 22.617188 0.453125 17.984375 0.453125 C 12.742188 0.453125 8.75 -0.640625 6 -2.828125 C 3.539062 -4.785156 2.144531 -7.578125 1.8125 -11.203125 L 6.21875 -11.203125 C 6.375 -8.628906 7.617188 -6.664062 9.953125 -5.3125 C 11.984375 -4.144531 14.675781 -3.5625 18.03125 -3.5625 C 25.050781 -3.5625 28.5625 -5.765625 28.5625 -10.171875 C 28.5625 -11.679688 27.925781 -12.867188 26.65625 -13.734375 C 25.394531 -14.609375 23.8125 -15.328125 21.90625 -15.890625 C 20.007812 -16.453125 17.957031 -16.976562 15.75 -17.46875 C 13.539062 -17.957031 11.484375 -18.585938 9.578125 -19.359375 C 7.679688 -20.140625 6.097656 -21.160156 4.828125 -22.421875 C 3.566406 -23.679688 2.9375 -25.382812 2.9375 -27.53125 C 2.9375 -30.59375 4.101562 -33.082031 6.4375 -35 C 8.78125 -36.925781 12.304688 -37.890625 17.015625 -37.890625 C 21.765625 -37.890625 25.441406 -36.796875 28.046875 -34.609375 C 30.421875 -32.679688 31.679688 -30.210938 31.828125 -27.203125 L 27.484375 -27.203125 C 27.109375 -30.285156 25.109375 -32.335938 21.484375 -33.359375 C 20.203125 -33.734375 18.609375 -33.921875 16.703125 -33.921875 C 14.804688 -33.921875 13.207031 -33.703125 11.90625 -33.265625 C 10.601562 -32.835938 9.59375 -32.3125 8.875 -31.6875 Z M 8.875 -31.6875 "/></g></g><g style="fill:#ffffff;fill-opacity:1;"><g transform="translate(87.386718, 270.386994)"><path style="stroke:none" d="M 15.984375 -17.109375 L 9.28125 -17.109375 L 9.28125 0 L 7.109375 0 L 7.109375 -17.109375 L 0.40625 -17.109375 L 0.40625 -19.203125 L 15.984375 -19.203125 Z M 15.984375 -17.109375 "/></g></g><g style="fill:#ffffff;fill-opacity:1;"><g transform="translate(103.767298, 270.386994)"><path style="stroke:none" d="M 4.53125 -17.109375 L 4.53125 -10.671875 L 15.203125 -10.671875 L 15.203125 -8.5625 L 4.53125 -8.5625 L 4.53125 -2.09375 L 16.46875 -2.09375 L 16.46875 0 L 2.34375 0 L 2.34375 -19.203125 L 16.46875 -19.203125 L 16.46875 -17.109375 Z M 4.53125 -17.109375 "/></g></g><g style="fill:#ffffff;fill-opacity:1;"><g transform="translate(121.39454, 270.386994)"><path style="stroke:none" d="M 18.90625 -19.203125 L 18.90625 0 L 16.390625 0 L 4.53125 -16.21875 L 4.53125 0 L 2.34375 0 L 2.34375 -19.203125 L 4.875 -19.203125 L 16.734375 -3.046875 L 16.734375 -19.203125 Z M 18.90625 -19.203125 "/></g></g><g style="fill:#ffffff;fill-opacity:1;"><g transform="translate(142.645805, 270.386994)"><path style="stroke:none" d="M 4.546875 -16.25 C 4.179688 -15.9375 3.9375 -15.582031 3.8125 -15.1875 C 3.6875 -14.800781 3.625 -14.390625 3.625 -13.953125 C 3.625 -13.523438 3.8125 -13.125 4.1875 -12.75 C 4.5625 -12.382812 5.054688 -12.078125 5.671875 -11.828125 C 6.296875 -11.578125 7.003906 -11.351562 7.796875 -11.15625 C 8.585938 -10.96875 9.394531 -10.769531 10.21875 -10.5625 C 11.039062 -10.363281 11.847656 -10.132812 12.640625 -9.875 C 13.429688 -9.613281 14.140625 -9.28125 14.765625 -8.875 C 16.128906 -8 16.8125 -6.8125 16.8125 -5.3125 C 16.8125 -3.507812 16.140625 -2.132812 14.796875 -1.1875 C 13.453125 -0.238281 11.59375 0.234375 9.21875 0.234375 C 6.53125 0.234375 4.484375 -0.328125 3.078125 -1.453125 C 1.816406 -2.453125 1.097656 -3.878906 0.921875 -5.734375 L 3.1875 -5.734375 C 3.269531 -4.421875 3.910156 -3.414062 5.109375 -2.71875 C 6.148438 -2.125 7.53125 -1.828125 9.25 -1.828125 C 12.84375 -1.828125 14.640625 -2.957031 14.640625 -5.21875 C 14.640625 -5.988281 14.316406 -6.597656 13.671875 -7.046875 C 13.023438 -7.492188 12.210938 -7.859375 11.234375 -8.140625 C 10.253906 -8.429688 9.195312 -8.703125 8.0625 -8.953125 C 6.9375 -9.210938 5.882812 -9.539062 4.90625 -9.9375 C 3.9375 -10.332031 3.128906 -10.851562 2.484375 -11.5 C 1.835938 -12.144531 1.515625 -13.019531 1.515625 -14.125 C 1.515625 -15.6875 2.113281 -16.960938 3.3125 -17.953125 C 4.507812 -18.941406 6.316406 -19.4375 8.734375 -19.4375 C 11.171875 -19.4375 13.054688 -18.875 14.390625 -17.75 C 15.609375 -16.757812 16.253906 -15.492188 16.328125 -13.953125 L 14.09375 -13.953125 C 13.894531 -15.535156 12.867188 -16.585938 11.015625 -17.109375 C 10.359375 -17.304688 9.539062 -17.40625 8.5625 -17.40625 C 7.59375 -17.40625 6.773438 -17.289062 6.109375 -17.0625 C 5.441406 -16.84375 4.921875 -16.570312 4.546875 -16.25 Z M 4.546875 -16.25 "/></g></g><g style="fill:#ffffff;fill-opacity:1;"><g transform="translate(160.475996, 270.386994)"><path style="stroke:none" d="M 4.53125 0 L 2.34375 0 L 2.34375 -19.203125 L 4.53125 -19.203125 Z M 4.53125 0 "/></g></g><g style="fill:#ffffff;fill-opacity:1;"><g transform="translate(167.347143, 270.386994)"><path style="stroke:none" d="M 10.875 -19.4375 C 13.738281 -19.4375 16.085938 -18.476562 17.921875 -16.5625 C 19.722656 -14.707031 20.625 -12.382812 20.625 -9.59375 C 20.625 -6.8125 19.722656 -4.492188 17.921875 -2.640625 C 16.085938 -0.722656 13.738281 0.234375 10.875 0.234375 C 8.007812 0.234375 5.660156 -0.722656 3.828125 -2.640625 C 2.023438 -4.492188 1.125 -6.8125 1.125 -9.59375 C 1.125 -12.382812 2.023438 -14.707031 3.828125 -16.5625 C 5.660156 -18.476562 8.007812 -19.4375 10.875 -19.4375 Z M 10.875 -1.890625 C 13.15625 -1.890625 15 -2.632812 16.40625 -4.125 C 17.757812 -5.550781 18.4375 -7.375 18.4375 -9.59375 C 18.4375 -11.820312 17.757812 -13.648438 16.40625 -15.078125 C 15 -16.566406 13.15625 -17.3125 10.875 -17.3125 C 8.59375 -17.3125 6.75 -16.566406 5.34375 -15.078125 C 3.988281 -13.648438 3.3125 -11.820312 3.3125 -9.59375 C 3.3125 -7.375 3.988281 -5.550781 5.34375 -4.125 C 6.75 -2.632812 8.59375 -1.890625 10.875 -1.890625 Z M 10.875 -1.890625 "/></g></g><g style="fill:#ffffff;fill-opacity:1;"><g transform="translate(189.09127, 270.386994)"><path style="stroke:none" d="M 21.03125 -19.203125 L 21.03125 0 L 18.84375 0 L 18.84375 -15.890625 L 11.75 -6.75 L 4.53125 -15.890625 L 4.53125 0 L 2.34375 0 L 2.34375 -19.203125 L 4.875 -19.203125 L 11.75 -10.09375 L 18.5 -19.203125 Z M 21.03125 -19.203125 "/></g></g><g style="fill:#ffffff;fill-opacity:1;"><g transform="translate(212.45896, 270.386994)"><path style="stroke:none" d="M 4.53125 -17.109375 L 4.53125 -10.671875 L 15.203125 -10.671875 L 15.203125 -8.5625 L 4.53125 -8.5625 L 4.53125 -2.09375 L 16.46875 -2.09375 L 16.46875 0 L 2.34375 0 L 2.34375 -19.203125 L 16.46875 -19.203125 L 16.46875 -17.109375 Z M 4.53125 -17.109375 "/></g></g><g style="fill:#ffffff;fill-opacity:1;"><g transform="translate(230.086202, 270.386994)"><path style="stroke:none" d="M 15.984375 -17.109375 L 9.28125 -17.109375 L 9.28125 0 L 7.109375 0 L 7.109375 -17.109375 L 0.40625 -17.109375 L 0.40625 -19.203125 L 15.984375 -19.203125 Z M 15.984375 -17.109375 "/></g></g><g style="fill:#ffffff;fill-opacity:1;"><g transform="translate(246.466782, 270.386994)"><path style="stroke:none" d="M 4.53125 0 L 2.34375 0 L 2.34375 -19.203125 L 11.546875 -19.203125 C 13.492188 -19.203125 15.054688 -18.660156 16.234375 -17.578125 C 17.421875 -16.515625 18.015625 -15.050781 18.015625 -13.1875 C 18.015625 -10.789062 17.015625 -9.160156 15.015625 -8.296875 C 14.460938 -8.046875 13.914062 -7.863281 13.375 -7.75 L 18.421875 0 L 15.828125 0 L 11.1875 -7.359375 L 4.53125 -7.359375 Z M 4.53125 -9.421875 L 11.171875 -9.421875 C 13.210938 -9.421875 14.625 -10.0625 15.40625 -11.34375 C 15.6875 -11.820312 15.828125 -12.4375 15.828125 -13.1875 C 15.828125 -14.40625 15.410156 -15.367188 14.578125 -16.078125 C 13.753906 -16.785156 12.65625 -17.140625 11.28125 -17.140625 L 4.53125 -17.140625 Z M 4.53125 -9.421875 "/></g></g><g style="fill:#ffffff;fill-opacity:1;"><g transform="translate(265.862548, 270.386994)"><path style="stroke:none" d="M 10.875 -19.4375 C 13.738281 -19.4375 16.085938 -18.476562 17.921875 -16.5625 C 19.722656 -14.707031 20.625 -12.382812 20.625 -9.59375 C 20.625 -6.8125 19.722656 -4.492188 17.921875 -2.640625 C 16.085938 -0.722656 13.738281 0.234375 10.875 0.234375 C 8.007812 0.234375 5.660156 -0.722656 3.828125 -2.640625 C 2.023438 -4.492188 1.125 -6.8125 1.125 -9.59375 C 1.125 -12.382812 2.023438 -14.707031 3.828125 -16.5625 C 5.660156 -18.476562 8.007812 -19.4375 10.875 -19.4375 Z M 10.875 -1.890625 C 13.15625 -1.890625 15 -2.632812 16.40625 -4.125 C 17.757812 -5.550781 18.4375 -7.375 18.4375 -9.59375 C 18.4375 -11.820312 17.757812 -13.648438 16.40625 -15.078125 C 15 -16.566406 13.15625 -17.3125 10.875 -17.3125 C 8.59375 -17.3125 6.75 -16.566406 5.34375 -15.078125 C 3.988281 -13.648438 3.3125 -11.820312 3.3125 -9.59375 C 3.3125 -7.375 3.988281 -5.550781 5.34375 -4.125 C 6.75 -2.632812 8.59375 -1.890625 10.875 -1.890625 Z M 10.875 -1.890625 "/></g></g></g></svg>