<svg xmlns="http://www.w3.org/2000/svg" xmlns:xlink="http://www.w3.org/1999/xlink" width="500" zoomAndPan="magnify" viewBox="0 0 375 374.999991" height="500" preserveAspectRatio="xMidYMid meet" version="1.2"><defs><clipPath id="751a3f6568"><path d="M 80.4375 37.5 L 294.9375 37.5 L 294.9375 337.5 L 80.4375 337.5 Z M 80.4375 37.5 "/></clipPath></defs><g id="062e2168e8"><g clip-rule="nonzero" clip-path="url(#751a3f6568)"><path style=" stroke:none;fill-rule:nonzero;fill:#359730;fill-opacity:1;" d="M 187.5 37.613281 C 144.675781 121.933594 80.4375 166.085938 80.4375 230.324219 C 80.4375 289.445312 128.378906 337.386719 187.5 337.386719 C 246.621094 337.386719 294.5625 289.445312 294.5625 230.324219 C 294.5625 166.085938 230.324219 123.261719 187.5 37.613281 Z M 187.5 37.613281 "/></g><g style="fill:#ffffff;fill-opacity:1;"><g transform="translate(105.284122, 241.85201)"><path style="stroke:none" d="M 7.109375 0 L 3.6875 0 L 3.6875 -30.15625 L 7.109375 -30.15625 Z M 7.109375 0 "/></g></g><g style="fill:#ffffff;fill-opacity:1;"><g transform="translate(116.079038, 241.85201)"><path style="stroke:none" d="M 7.109375 0 L 3.6875 0 L 3.6875 -30.15625 L 18.125 -30.15625 C 21.195312 -30.15625 23.65625 -29.300781 25.5 -27.59375 C 27.351562 -25.925781 28.28125 -23.632812 28.28125 -20.71875 C 28.28125 -16.957031 26.71875 -14.394531 23.59375 -13.03125 C 22.707031 -12.632812 21.84375 -12.34375 21 -12.15625 L 28.921875 0 L 24.875 0 L 17.578125 -11.5625 L 7.109375 -11.5625 Z M 7.109375 -14.796875 L 17.53125 -14.796875 C 20.75 -14.796875 22.96875 -15.800781 24.1875 -17.8125 C 24.644531 -18.570312 24.875 -19.539062 24.875 -20.71875 C 24.875 -22.632812 24.21875 -24.144531 22.90625 -25.25 C 21.601562 -26.363281 19.875 -26.921875 17.71875 -26.921875 L 7.109375 -26.921875 Z M 7.109375 -14.796875 "/></g></g><g style="fill:#ffffff;fill-opacity:1;"><g transform="translate(146.550771, 241.85201)"><path style="stroke:none" d="M 7.109375 0 L 3.6875 0 L 3.6875 -30.15625 L 18.125 -30.15625 C 21.195312 -30.15625 23.65625 -29.300781 25.5 -27.59375 C 27.351562 -25.925781 28.28125 -23.632812 28.28125 -20.71875 C 28.28125 -16.957031 26.71875 -14.394531 23.59375 -13.03125 C 22.707031 -12.632812 21.84375 -12.34375 21 -12.15625 L 28.921875 0 L 24.875 0 L 17.578125 -11.5625 L 7.109375 -11.5625 Z M 7.109375 -14.796875 L 17.53125 -14.796875 C 20.75 -14.796875 22.96875 -15.800781 24.1875 -17.8125 C 24.644531 -18.570312 24.875 -19.539062 24.875 -20.71875 C 24.875 -22.632812 24.21875 -24.144531 22.90625 -25.25 C 21.601562 -26.363281 19.875 -26.921875 17.71875 -26.921875 L 7.109375 -26.921875 Z M 7.109375 -14.796875 "/></g></g><g style="fill:#ffffff;fill-opacity:1;"><g transform="translate(177.022503, 241.85201)"><path style="stroke:none" d="M 7.109375 0 L 3.6875 0 L 3.6875 -30.15625 L 7.109375 -30.15625 Z M 7.109375 0 "/></g></g><g style="fill:#ffffff;fill-opacity:1;"><g transform="translate(187.817419, 241.85201)"><path style="stroke:none" d="M 7.109375 -26.875 L 7.109375 -16.390625 L 23.453125 -16.390625 L 23.453125 -13.078125 L 7.109375 -13.078125 L 7.109375 0 L 3.6875 0 L 3.6875 -30.15625 L 25.453125 -30.15625 L 25.453125 -26.875 Z M 7.109375 -26.875 "/></g></g><g style="fill:#ffffff;fill-opacity:1;"><g transform="translate(214.37201, 241.85201)"><path style="stroke:none" d="M 7.109375 -26.875 L 7.109375 -16.765625 L 23.859375 -16.765625 L 23.859375 -13.4375 L 7.109375 -13.4375 L 7.109375 -3.28125 L 25.875 -3.28125 L 25.875 0 L 3.6875 0 L 3.6875 -30.15625 L 25.875 -30.15625 L 25.875 -26.875 Z M 7.109375 -26.875 "/></g></g><g style="fill:#ffffff;fill-opacity:1;"><g transform="translate(241.70087, 241.85201)"><path style="stroke:none" d="M 7.140625 -25.53125 C 6.566406 -25.03125 6.179688 -24.472656 5.984375 -23.859375 C 5.785156 -23.253906 5.6875 -22.609375 5.6875 -21.921875 C 5.6875 -21.242188 5.984375 -20.613281 6.578125 -20.03125 C 7.171875 -19.457031 7.953125 -18.972656 8.921875 -18.578125 C 9.898438 -18.179688 11.007812 -17.832031 12.25 -17.53125 C 13.5 -17.226562 14.765625 -16.914062 16.046875 -16.59375 C 17.335938 -16.28125 18.601562 -15.914062 19.84375 -15.5 C 21.09375 -15.09375 22.207031 -14.570312 23.1875 -13.9375 C 25.34375 -12.570312 26.421875 -10.703125 26.421875 -8.328125 C 26.421875 -5.503906 25.363281 -3.347656 23.25 -1.859375 C 21.144531 -0.378906 18.222656 0.359375 14.484375 0.359375 C 10.265625 0.359375 7.046875 -0.519531 4.828125 -2.28125 C 2.859375 -3.851562 1.734375 -6.097656 1.453125 -9.015625 L 5.015625 -9.015625 C 5.128906 -6.953125 6.128906 -5.375 8.015625 -4.28125 C 9.648438 -3.34375 11.820312 -2.875 14.53125 -2.875 C 20.175781 -2.875 23 -4.648438 23 -8.203125 C 23 -9.410156 22.488281 -10.363281 21.46875 -11.0625 C 20.457031 -11.757812 19.179688 -12.335938 17.640625 -12.796875 C 16.109375 -13.253906 14.453125 -13.679688 12.671875 -14.078125 C 10.898438 -14.472656 9.25 -14.976562 7.71875 -15.59375 C 6.1875 -16.21875 4.910156 -17.035156 3.890625 -18.046875 C 2.878906 -19.066406 2.375 -20.445312 2.375 -22.1875 C 2.375 -24.644531 3.3125 -26.644531 5.1875 -28.1875 C 7.070312 -29.738281 9.910156 -30.515625 13.703125 -30.515625 C 17.535156 -30.515625 20.5 -29.632812 22.59375 -27.875 C 24.5 -26.320312 25.515625 -24.332031 25.640625 -21.90625 L 22.140625 -21.90625 C 21.835938 -24.394531 20.226562 -26.050781 17.3125 -26.875 C 16.28125 -27.175781 14.992188 -27.328125 13.453125 -27.328125 C 11.921875 -27.328125 10.628906 -27.148438 9.578125 -26.796875 C 8.535156 -26.453125 7.722656 -26.03125 7.140625 -25.53125 Z M 7.140625 -25.53125 "/></g></g><g style="fill:#ffffff;fill-opacity:1;"><g transform="translate(127.64648, 271.624787)"><path style="stroke:none" d="M 4.703125 -16.8125 C 4.328125 -16.476562 4.070312 -16.113281 3.9375 -15.71875 C 3.8125 -15.320312 3.75 -14.894531 3.75 -14.4375 C 3.75 -13.988281 3.941406 -13.570312 4.328125 -13.1875 C 4.722656 -12.8125 5.238281 -12.492188 5.875 -12.234375 C 6.519531 -11.972656 7.25 -11.742188 8.0625 -11.546875 C 8.882812 -11.347656 9.71875 -11.144531 10.5625 -10.9375 C 11.414062 -10.726562 12.253906 -10.488281 13.078125 -10.21875 C 13.898438 -9.945312 14.628906 -9.601562 15.265625 -9.1875 C 16.691406 -8.28125 17.40625 -7.046875 17.40625 -5.484375 C 17.40625 -3.628906 16.707031 -2.210938 15.3125 -1.234375 C 13.925781 -0.253906 12.003906 0.234375 9.546875 0.234375 C 6.765625 0.234375 4.644531 -0.34375 3.1875 -1.5 C 1.882812 -2.539062 1.140625 -4.019531 0.953125 -5.9375 L 3.296875 -5.9375 C 3.378906 -4.582031 4.039062 -3.539062 5.28125 -2.8125 C 6.363281 -2.195312 7.789062 -1.890625 9.5625 -1.890625 C 13.289062 -1.890625 15.15625 -3.0625 15.15625 -5.40625 C 15.15625 -6.195312 14.816406 -6.820312 14.140625 -7.28125 C 13.472656 -7.75 12.632812 -8.128906 11.625 -8.421875 C 10.613281 -8.722656 9.519531 -9.003906 8.34375 -9.265625 C 7.175781 -9.523438 6.085938 -9.859375 5.078125 -10.265625 C 4.066406 -10.679688 3.226562 -11.222656 2.5625 -11.890625 C 1.894531 -12.566406 1.5625 -13.472656 1.5625 -14.609375 C 1.5625 -16.234375 2.179688 -17.550781 3.421875 -18.5625 C 4.660156 -19.582031 6.53125 -20.09375 9.03125 -20.09375 C 11.550781 -20.09375 13.5 -19.515625 14.875 -18.359375 C 16.132812 -17.335938 16.804688 -16.03125 16.890625 -14.4375 L 14.578125 -14.4375 C 14.378906 -16.070312 13.320312 -17.160156 11.40625 -17.703125 C 10.71875 -17.898438 9.867188 -18 8.859375 -18 C 7.847656 -18 7 -17.882812 6.3125 -17.65625 C 5.625 -17.425781 5.085938 -17.144531 4.703125 -16.8125 Z M 4.703125 -16.8125 "/></g></g><g style="fill:#ffffff;fill-opacity:1;"><g transform="translate(146.096461, 271.624787)"><path style="stroke:none" d="M 4.6875 -17.703125 L 4.6875 -11.046875 L 15.71875 -11.046875 L 15.71875 -8.84375 L 4.6875 -8.84375 L 4.6875 -2.15625 L 17.046875 -2.15625 L 17.046875 0 L 2.4375 0 L 2.4375 -19.859375 L 17.046875 -19.859375 L 17.046875 -17.703125 Z M 4.6875 -17.703125 "/></g></g><g style="fill:#ffffff;fill-opacity:1;"><g transform="translate(164.336442, 271.624787)"><path style="stroke:none" d="M 19.5625 -19.859375 L 19.5625 0 L 16.953125 0 L 4.6875 -16.765625 L 4.6875 0 L 2.4375 0 L 2.4375 -19.859375 L 5.046875 -19.859375 L 17.3125 -3.15625 L 17.3125 -19.859375 Z M 19.5625 -19.859375 "/></g></g><g style="fill:#ffffff;fill-opacity:1;"><g transform="translate(186.326424, 271.624787)"><path style="stroke:none" d="M 4.703125 -16.8125 C 4.328125 -16.476562 4.070312 -16.113281 3.9375 -15.71875 C 3.8125 -15.320312 3.75 -14.894531 3.75 -14.4375 C 3.75 -13.988281 3.941406 -13.570312 4.328125 -13.1875 C 4.722656 -12.8125 5.238281 -12.492188 5.875 -12.234375 C 6.519531 -11.972656 7.25 -11.742188 8.0625 -11.546875 C 8.882812 -11.347656 9.71875 -11.144531 10.5625 -10.9375 C 11.414062 -10.726562 12.253906 -10.488281 13.078125 -10.21875 C 13.898438 -9.945312 14.628906 -9.601562 15.265625 -9.1875 C 16.691406 -8.28125 17.40625 -7.046875 17.40625 -5.484375 C 17.40625 -3.628906 16.707031 -2.210938 15.3125 -1.234375 C 13.925781 -0.253906 12.003906 0.234375 9.546875 0.234375 C 6.765625 0.234375 4.644531 -0.34375 3.1875 -1.5 C 1.882812 -2.539062 1.140625 -4.019531 0.953125 -5.9375 L 3.296875 -5.9375 C 3.378906 -4.582031 4.039062 -3.539062 5.28125 -2.8125 C 6.363281 -2.195312 7.789062 -1.890625 9.5625 -1.890625 C 13.289062 -1.890625 15.15625 -3.0625 15.15625 -5.40625 C 15.15625 -6.195312 14.816406 -6.820312 14.140625 -7.28125 C 13.472656 -7.75 12.632812 -8.128906 11.625 -8.421875 C 10.613281 -8.722656 9.519531 -9.003906 8.34375 -9.265625 C 7.175781 -9.523438 6.085938 -9.859375 5.078125 -10.265625 C 4.066406 -10.679688 3.226562 -11.222656 2.5625 -11.890625 C 1.894531 -12.566406 1.5625 -13.472656 1.5625 -14.609375 C 1.5625 -16.234375 2.179688 -17.550781 3.421875 -18.5625 C 4.660156 -19.582031 6.53125 -20.09375 9.03125 -20.09375 C 11.550781 -20.09375 13.5 -19.515625 14.875 -18.359375 C 16.132812 -17.335938 16.804688 -16.03125 16.890625 -14.4375 L 14.578125 -14.4375 C 14.378906 -16.070312 13.320312 -17.160156 11.40625 -17.703125 C 10.71875 -17.898438 9.867188 -18 8.859375 -18 C 7.847656 -18 7 -17.882812 6.3125 -17.65625 C 5.625 -17.425781 5.085938 -17.144531 4.703125 -16.8125 Z M 4.703125 -16.8125 "/></g></g><g style="fill:#ffffff;fill-opacity:1;"><g transform="translate(204.776405, 271.624787)"><path style="stroke:none" d="M 11.25 -20.09375 C 14.207031 -20.09375 16.640625 -19.101562 18.546875 -17.125 C 20.398438 -15.207031 21.328125 -12.804688 21.328125 -9.921875 C 21.328125 -7.046875 20.398438 -4.648438 18.546875 -2.734375 C 16.640625 -0.753906 14.207031 0.234375 11.25 0.234375 C 8.289062 0.234375 5.859375 -0.753906 3.953125 -2.734375 C 2.097656 -4.648438 1.171875 -7.046875 1.171875 -9.921875 C 1.171875 -12.804688 2.097656 -15.207031 3.953125 -17.125 C 5.859375 -19.101562 8.289062 -20.09375 11.25 -20.09375 Z M 11.25 -1.953125 C 13.613281 -1.953125 15.523438 -2.722656 16.984375 -4.265625 C 18.378906 -5.742188 19.078125 -7.632812 19.078125 -9.9375 C 19.078125 -12.226562 18.378906 -14.113281 16.984375 -15.59375 C 15.523438 -17.132812 13.613281 -17.90625 11.25 -17.90625 C 8.882812 -17.90625 6.972656 -17.132812 5.515625 -15.59375 C 4.117188 -14.113281 3.421875 -12.226562 3.421875 -9.9375 C 3.421875 -7.632812 4.117188 -5.742188 5.515625 -4.265625 C 6.972656 -2.722656 8.882812 -1.953125 11.25 -1.953125 Z M 11.25 -1.953125 "/></g></g><g style="fill:#ffffff;fill-opacity:1;"><g transform="translate(227.27638, 271.624787)"><path style="stroke:none" d="M 4.6875 0 L 2.4375 0 L 2.4375 -19.859375 L 11.9375 -19.859375 C 13.957031 -19.859375 15.578125 -19.300781 16.796875 -18.1875 C 18.015625 -17.082031 18.625 -15.570312 18.625 -13.65625 C 18.625 -11.175781 17.597656 -9.484375 15.546875 -8.578125 C 14.960938 -8.316406 14.390625 -8.128906 13.828125 -8.015625 L 19.046875 0 L 16.375 0 L 11.578125 -7.625 L 4.6875 -7.625 Z M 4.6875 -9.75 L 11.546875 -9.75 C 13.671875 -9.75 15.132812 -10.410156 15.9375 -11.734375 C 16.226562 -12.234375 16.375 -12.875 16.375 -13.65625 C 16.375 -14.914062 15.941406 -15.910156 15.078125 -16.640625 C 14.222656 -17.367188 13.085938 -17.734375 11.671875 -17.734375 L 4.6875 -17.734375 Z M 4.6875 -9.75 "/></g></g></g></svg>