<svg xmlns="http://www.w3.org/2000/svg" xmlns:xlink="http://www.w3.org/1999/xlink" width="500" zoomAndPan="magnify" viewBox="0 0 375 374.999991" height="500" preserveAspectRatio="xMidYMid meet" version="1.2"><defs><clipPath id="04f86c9e2a"><path d="M 133.96875 46.875 L 241.21875 46.875 L 241.21875 196.875 L 133.96875 196.875 Z M 133.96875 46.875 "/></clipPath></defs><g id="647acd0219"><g clip-rule="nonzero" clip-path="url(#04f86c9e2a)"><path style=" stroke:none;fill-rule:nonzero;fill:#359730;fill-opacity:1;" d="M 187.5 46.929688 C 166.085938 89.09375 133.96875 111.167969 133.96875 143.289062 C 133.96875 172.847656 157.941406 196.820312 187.5 196.820312 C 217.058594 196.820312 241.03125 172.847656 241.03125 143.289062 C 241.03125 111.167969 208.914062 89.757812 187.5 46.929688 Z M 187.5 46.929688 "/></g><g style="fill:#359730;fill-opacity:1;"><g transform="translate(65.529073, 248.195848)"><path style="stroke:none" d="M 10.546875 0 L 5.46875 0 L 5.46875 -44.734375 L 10.546875 -44.734375 Z M 10.546875 0 "/></g></g><g style="fill:#359730;fill-opacity:1;"><g transform="translate(81.543813, 248.195848)"><path style="stroke:none" d="M 10.546875 0 L 5.46875 0 L 5.46875 -44.734375 L 26.890625 -44.734375 C 31.441406 -44.734375 35.09375 -43.472656 37.84375 -40.953125 C 40.59375 -38.472656 41.96875 -35.070312 41.96875 -30.75 C 41.96875 -25.164062 39.644531 -21.359375 35 -19.328125 C 33.695312 -18.742188 32.414062 -18.316406 31.15625 -18.046875 L 42.90625 0 L 36.890625 0 L 26.078125 -17.171875 L 10.546875 -17.171875 Z M 10.546875 -21.96875 L 26.015625 -21.96875 C 30.796875 -21.96875 34.085938 -23.453125 35.890625 -26.421875 C 36.554688 -27.546875 36.890625 -28.988281 36.890625 -30.75 C 36.890625 -33.582031 35.921875 -35.820312 33.984375 -37.46875 C 32.046875 -39.113281 29.476562 -39.9375 26.28125 -39.9375 L 10.546875 -39.9375 Z M 10.546875 -21.96875 "/></g></g><g style="fill:#359730;fill-opacity:1;"><g transform="translate(126.749987, 248.195848)"><path style="stroke:none" d="M 10.546875 0 L 5.46875 0 L 5.46875 -44.734375 L 26.890625 -44.734375 C 31.441406 -44.734375 35.09375 -43.472656 37.84375 -40.953125 C 40.59375 -38.472656 41.96875 -35.070312 41.96875 -30.75 C 41.96875 -25.164062 39.644531 -21.359375 35 -19.328125 C 33.695312 -18.742188 32.414062 -18.316406 31.15625 -18.046875 L 42.90625 0 L 36.890625 0 L 26.078125 -17.171875 L 10.546875 -17.171875 Z M 10.546875 -21.96875 L 26.015625 -21.96875 C 30.796875 -21.96875 34.085938 -23.453125 35.890625 -26.421875 C 36.554688 -27.546875 36.890625 -28.988281 36.890625 -30.75 C 36.890625 -33.582031 35.921875 -35.820312 33.984375 -37.46875 C 32.046875 -39.113281 29.476562 -39.9375 26.28125 -39.9375 L 10.546875 -39.9375 Z M 10.546875 -21.96875 "/></g></g><g style="fill:#359730;fill-opacity:1;"><g transform="translate(171.956162, 248.195848)"><path style="stroke:none" d="M 10.546875 0 L 5.46875 0 L 5.46875 -44.734375 L 10.546875 -44.734375 Z M 10.546875 0 "/></g></g><g style="fill:#359730;fill-opacity:1;"><g transform="translate(187.970902, 248.195848)"><path style="stroke:none" d="M 10.546875 -39.875 L 10.546875 -24.328125 L 34.796875 -24.328125 L 34.796875 -19.390625 L 10.546875 -19.390625 L 10.546875 0 L 5.46875 0 L 5.46875 -44.734375 L 37.78125 -44.734375 L 37.78125 -39.875 Z M 10.546875 -39.875 "/></g></g><g style="fill:#359730;fill-opacity:1;"><g transform="translate(227.365821, 248.195848)"><path style="stroke:none" d="M 10.546875 -39.875 L 10.546875 -24.875 L 35.40625 -24.875 L 35.40625 -19.9375 L 10.546875 -19.9375 L 10.546875 -4.859375 L 38.390625 -4.859375 L 38.390625 0 L 5.46875 0 L 5.46875 -44.734375 L 38.390625 -44.734375 L 38.390625 -39.875 Z M 10.546875 -39.875 "/></g></g><g style="fill:#359730;fill-opacity:1;"><g transform="translate(267.909405, 248.195848)"><path style="stroke:none" d="M 10.609375 -37.875 C 9.753906 -37.132812 9.179688 -36.3125 8.890625 -35.40625 C 8.597656 -34.507812 8.453125 -33.550781 8.453125 -32.53125 C 8.453125 -31.519531 8.890625 -30.585938 9.765625 -29.734375 C 10.640625 -28.878906 11.796875 -28.15625 13.234375 -27.5625 C 14.679688 -26.976562 16.328125 -26.460938 18.171875 -26.015625 C 20.023438 -25.566406 21.90625 -25.101562 23.8125 -24.625 C 25.726562 -24.15625 27.609375 -23.613281 29.453125 -23 C 31.304688 -22.394531 32.953125 -21.617188 34.390625 -20.671875 C 37.585938 -18.648438 39.1875 -15.878906 39.1875 -12.359375 C 39.1875 -8.171875 37.617188 -4.972656 34.484375 -2.765625 C 31.359375 -0.554688 27.023438 0.546875 21.484375 0.546875 C 15.222656 0.546875 10.445312 -0.757812 7.15625 -3.375 C 4.226562 -5.71875 2.5625 -9.050781 2.15625 -13.375 L 7.4375 -13.375 C 7.613281 -10.3125 9.097656 -7.972656 11.890625 -6.359375 C 14.328125 -4.953125 17.550781 -4.25 21.5625 -4.25 C 29.9375 -4.25 34.125 -6.882812 34.125 -12.15625 C 34.125 -13.957031 33.367188 -15.375 31.859375 -16.40625 C 30.347656 -17.445312 28.457031 -18.304688 26.1875 -18.984375 C 23.914062 -19.660156 21.457031 -20.289062 18.8125 -20.875 C 16.175781 -21.46875 13.722656 -22.222656 11.453125 -23.140625 C 9.179688 -24.066406 7.289062 -25.285156 5.78125 -26.796875 C 4.269531 -28.304688 3.515625 -30.34375 3.515625 -32.90625 C 3.515625 -36.5625 4.910156 -39.535156 7.703125 -41.828125 C 10.492188 -44.128906 14.707031 -45.28125 20.34375 -45.28125 C 26.019531 -45.28125 30.410156 -43.972656 33.515625 -41.359375 C 36.359375 -39.054688 37.867188 -36.101562 38.046875 -32.5 L 32.84375 -32.5 C 32.394531 -36.195312 30.003906 -38.65625 25.671875 -39.875 C 24.140625 -40.320312 22.238281 -40.546875 19.96875 -40.546875 C 17.695312 -40.546875 15.78125 -40.285156 14.21875 -39.765625 C 12.664062 -39.253906 11.460938 -38.625 10.609375 -37.875 Z M 10.609375 -37.875 "/></g></g><g style="fill:#359730;fill-opacity:1;"><g transform="translate(111.38104, 282.043561)"><path style="stroke:none" d="M 6.28125 -22.421875 C 5.769531 -21.984375 5.425781 -21.492188 5.25 -20.953125 C 5.082031 -20.421875 5 -19.851562 5 -19.25 C 5 -18.65625 5.257812 -18.101562 5.78125 -17.59375 C 6.300781 -17.09375 6.988281 -16.664062 7.84375 -16.3125 C 8.695312 -15.96875 9.671875 -15.660156 10.765625 -15.390625 C 11.859375 -15.128906 12.96875 -14.859375 14.09375 -14.578125 C 15.226562 -14.296875 16.34375 -13.972656 17.4375 -13.609375 C 18.53125 -13.253906 19.503906 -12.796875 20.359375 -12.234375 C 22.253906 -11.035156 23.203125 -9.394531 23.203125 -7.3125 C 23.203125 -4.832031 22.273438 -2.941406 20.421875 -1.640625 C 18.566406 -0.335938 16 0.3125 12.71875 0.3125 C 9.007812 0.3125 6.179688 -0.457031 4.234375 -2 C 2.503906 -3.382812 1.519531 -5.359375 1.28125 -7.921875 L 4.40625 -7.921875 C 4.507812 -6.109375 5.390625 -4.722656 7.046875 -3.765625 C 8.484375 -2.929688 10.390625 -2.515625 12.765625 -2.515625 C 17.722656 -2.515625 20.203125 -4.078125 20.203125 -7.203125 C 20.203125 -8.265625 19.753906 -9.101562 18.859375 -9.71875 C 17.960938 -10.332031 16.84375 -10.835938 15.5 -11.234375 C 14.15625 -11.640625 12.703125 -12.015625 11.140625 -12.359375 C 9.578125 -12.703125 8.125 -13.144531 6.78125 -13.6875 C 5.4375 -14.238281 4.316406 -14.960938 3.421875 -15.859375 C 2.523438 -16.753906 2.078125 -17.960938 2.078125 -19.484375 C 2.078125 -21.640625 2.90625 -23.394531 4.5625 -24.75 C 6.21875 -26.113281 8.710938 -26.796875 12.046875 -26.796875 C 15.398438 -26.796875 18 -26.023438 19.84375 -24.484375 C 21.519531 -23.117188 22.410156 -21.367188 22.515625 -19.234375 L 19.4375 -19.234375 C 19.175781 -21.421875 17.765625 -22.875 15.203125 -23.59375 C 14.296875 -23.863281 13.164062 -24 11.8125 -24 C 10.46875 -24 9.335938 -23.84375 8.421875 -23.53125 C 7.503906 -23.226562 6.789062 -22.859375 6.28125 -22.421875 Z M 6.28125 -22.421875 "/></g></g><g style="fill:#359730;fill-opacity:1;"><g transform="translate(135.978592, 282.043561)"><path style="stroke:none" d="M 6.234375 -23.59375 L 6.234375 -14.71875 L 20.953125 -14.71875 L 20.953125 -11.796875 L 6.234375 -11.796875 L 6.234375 -2.875 L 22.71875 -2.875 L 22.71875 0 L 3.234375 0 L 3.234375 -26.484375 L 22.71875 -26.484375 L 22.71875 -23.59375 Z M 6.234375 -23.59375 "/></g></g><g style="fill:#359730;fill-opacity:1;"><g transform="translate(160.296176, 282.043561)"><path style="stroke:none" d="M 26.078125 -26.484375 L 26.078125 0 L 22.59375 0 L 6.234375 -22.359375 L 6.234375 0 L 3.234375 0 L 3.234375 -26.484375 L 6.71875 -26.484375 L 23.078125 -4.203125 L 23.078125 -26.484375 Z M 26.078125 -26.484375 "/></g></g><g style="fill:#359730;fill-opacity:1;"><g transform="translate(189.613259, 282.043561)"><path style="stroke:none" d="M 6.28125 -22.421875 C 5.769531 -21.984375 5.425781 -21.492188 5.25 -20.953125 C 5.082031 -20.421875 5 -19.851562 5 -19.25 C 5 -18.65625 5.257812 -18.101562 5.78125 -17.59375 C 6.300781 -17.09375 6.988281 -16.664062 7.84375 -16.3125 C 8.695312 -15.96875 9.671875 -15.660156 10.765625 -15.390625 C 11.859375 -15.128906 12.96875 -14.859375 14.09375 -14.578125 C 15.226562 -14.296875 16.34375 -13.972656 17.4375 -13.609375 C 18.53125 -13.253906 19.503906 -12.796875 20.359375 -12.234375 C 22.253906 -11.035156 23.203125 -9.394531 23.203125 -7.3125 C 23.203125 -4.832031 22.273438 -2.941406 20.421875 -1.640625 C 18.566406 -0.335938 16 0.3125 12.71875 0.3125 C 9.007812 0.3125 6.179688 -0.457031 4.234375 -2 C 2.503906 -3.382812 1.519531 -5.359375 1.28125 -7.921875 L 4.40625 -7.921875 C 4.507812 -6.109375 5.390625 -4.722656 7.046875 -3.765625 C 8.484375 -2.929688 10.390625 -2.515625 12.765625 -2.515625 C 17.722656 -2.515625 20.203125 -4.078125 20.203125 -7.203125 C 20.203125 -8.265625 19.753906 -9.101562 18.859375 -9.71875 C 17.960938 -10.332031 16.84375 -10.835938 15.5 -11.234375 C 14.15625 -11.640625 12.703125 -12.015625 11.140625 -12.359375 C 9.578125 -12.703125 8.125 -13.144531 6.78125 -13.6875 C 5.4375 -14.238281 4.316406 -14.960938 3.421875 -15.859375 C 2.523438 -16.753906 2.078125 -17.960938 2.078125 -19.484375 C 2.078125 -21.640625 2.90625 -23.394531 4.5625 -24.75 C 6.21875 -26.113281 8.710938 -26.796875 12.046875 -26.796875 C 15.398438 -26.796875 18 -26.023438 19.84375 -24.484375 C 21.519531 -23.117188 22.410156 -21.367188 22.515625 -19.234375 L 19.4375 -19.234375 C 19.175781 -21.421875 17.765625 -22.875 15.203125 -23.59375 C 14.296875 -23.863281 13.164062 -24 11.8125 -24 C 10.46875 -24 9.335938 -23.84375 8.421875 -23.53125 C 7.503906 -23.226562 6.789062 -22.859375 6.28125 -22.421875 Z M 6.28125 -22.421875 "/></g></g><g style="fill:#359730;fill-opacity:1;"><g transform="translate(214.210811, 282.043561)"><path style="stroke:none" d="M 15 -26.796875 C 18.945312 -26.796875 22.1875 -25.476562 24.71875 -22.84375 C 27.195312 -20.28125 28.4375 -17.078125 28.4375 -13.234375 C 28.4375 -9.398438 27.195312 -6.203125 24.71875 -3.640625 C 22.1875 -1.003906 18.945312 0.3125 15 0.3125 C 11.050781 0.3125 7.8125 -1.003906 5.28125 -3.640625 C 2.800781 -6.203125 1.5625 -9.398438 1.5625 -13.234375 C 1.5625 -17.078125 2.800781 -20.28125 5.28125 -22.84375 C 7.8125 -25.476562 11.050781 -26.796875 15 -26.796875 Z M 15 -2.59375 C 18.144531 -2.59375 20.691406 -3.625 22.640625 -5.6875 C 24.503906 -7.65625 25.4375 -10.171875 25.4375 -13.234375 C 25.4375 -16.304688 24.503906 -18.828125 22.640625 -20.796875 C 20.691406 -22.847656 18.144531 -23.875 15 -23.875 C 11.851562 -23.875 9.304688 -22.847656 7.359375 -20.796875 C 5.492188 -18.828125 4.5625 -16.304688 4.5625 -13.234375 C 4.5625 -10.171875 5.492188 -7.65625 7.359375 -5.6875 C 9.304688 -3.625 11.851562 -2.59375 15 -2.59375 Z M 15 -2.59375 "/></g></g><g style="fill:#359730;fill-opacity:1;"><g transform="translate(244.207834, 282.043561)"><path style="stroke:none" d="M 6.234375 0 L 3.234375 0 L 3.234375 -26.484375 L 15.921875 -26.484375 C 18.609375 -26.484375 20.769531 -25.734375 22.40625 -24.234375 C 24.03125 -22.773438 24.84375 -20.765625 24.84375 -18.203125 C 24.84375 -14.890625 23.46875 -12.632812 20.71875 -11.4375 C 19.945312 -11.09375 19.1875 -10.84375 18.4375 -10.6875 L 25.40625 0 L 21.84375 0 L 15.4375 -10.15625 L 6.234375 -10.15625 Z M 6.234375 -13 L 15.40625 -13 C 18.226562 -13 20.171875 -13.878906 21.234375 -15.640625 C 21.640625 -16.304688 21.84375 -17.160156 21.84375 -18.203125 C 21.84375 -19.878906 21.269531 -21.203125 20.125 -22.171875 C 18.976562 -23.148438 17.457031 -23.640625 15.5625 -23.640625 L 6.234375 -23.640625 Z M 6.234375 -13 "/></g></g></g></svg>